<?xml version="1.0" encoding="UTF-8"?>
<svg id="Layer_1" xmlns="http://www.w3.org/2000/svg" version="1.1" viewBox="0 0 864 773.9">
  <!-- Generator: Adobe Illustrator 29.6.1, SVG Export Plug-In . SVG Version: 2.1.1 Build 9)  -->
  <defs>
    <style>
      .st0, .st1 {
        fill: #fffbf7;
      }

      .st1 {
        font-family: Georgia, Georgia;
        font-size: 179px;
      }
    </style>
  </defs>
  <path id="logoMark" class="st0" d="M451.8,556.5l229.8-71.6c-1.3-5.8-9.8-58.6-12.1-64.2-3.3-8.1-7.5-15.8-13.1-22.6-13.5-15.6-32-25.6-49.9-35.3-14.2-7.1-28.3-14.2-42.5-21.3-14.7-7.9-27.9-18.9-37.3-32.7-1.4-2.3.9-4.4,1.6-6.5,6.7-14.9,11.5-30.7,13.9-46.8,7.4-30.3,11.5-76.8,11.5-76.8.5-8.2.4-16.4.2-24.6,10.1-.4,20.1-2,30.1-3.5,10.2-1.8,21.4-3.7,32.2-8.2.8-.3,1.5-.7,2.3-1,1.6-.7,2.2-.9,4.2-2.1,4.5-2.9,4.8-9.5.5-12.7-.9-.7-1.8-1.2-2.8-1.8-2.1-1.2-4.2-2.1-6.4-3-7.6-2.9-15.7-4.5-23.7-6.2-15.2-3.3-30.6-5.9-45.9-8.9-7-26.4-13.8-52.9-21-79.3-2.2-8.7-7.2-16.6-14.6-21.8-4.4-2.9-9.5-4.6-14.6-5.7-15.5-1.3-30.4,4.3-44.9,9.1-6,1.9-11.8,4.5-18.2,4.8-6.3-.3-12.2-2.9-18.2-4.8-14.5-4.8-29.4-10.3-44.9-9.1-5.1,1.1-10.2,2.8-14.6,5.7-7.3,5.2-12.4,13.1-14.6,21.8-7.2,26.4-14,52.9-21,79.3-15.3,3-30.7,5.5-45.9,8.9-8,1.7-16,3.3-23.7,6.2-2.2.8-4.4,1.8-6.4,3-.9.5-1.9,1.1-2.8,1.8-4.3,3.2-4.1,9.8.5,12.7,2,1.3,2.6,1.4,4.2,2.1.7.4,1.5.7,2.3,1,10.8,4.4,22,6.4,32.2,8.2,10,1.5,20,3.1,30.1,3.5-.2,8.2-.4,16.4.2,24.6,0,0,4,46.5,11.5,76.8,2.4,16.1,7.2,31.9,13.9,46.8.7,2.1,3,4.2,1.6,6.5-9.4,13.8-22.6,24.8-37.3,32.7-14.2,7.1-28.3,14.2-42.5,21.3-17.9,9.6-36.4,19.6-49.9,35.3-5.5,6.7-9.8,14.5-13.1,22.6-2.3,5.5-10.8,58.4-12.1,64.2l229.8,71.6,3.9-70.4h16.8s16.8,0,16.8,0l3.9,70.4ZM518.9,190.5c-1.4,4.2-2.5,8.5-4.7,12.4-4.3,8.3-12,14.8-20.9,17.4-9,2.9-19.1,1-27.2-3.6-3.6-2.4-7.6-5.1-9.3-9.2,16-7.3,44.6-16.3,62.2-17ZM405.4,207.5c-1.7,4.1-5.7,6.8-9.3,9.2-8.1,4.5-18.2,6.5-27.2,3.6-9-2.6-16.6-9.1-20.9-17.4-2.2-3.9-3.3-8.2-4.7-12.4,17.5.7,46.2,9.7,62.2,17ZM386.7,473.3v-8.8c-6.4.2-12.9-.4-19.3.3-1.1,5,.6,10.4-1.2,15.4-1.3,3.7-4.8,6.9-8.8,7-4.8.3-9.8.5-14.5-1.2-2.7-1.3-4.6-3.6-6-6.1-.9-3.1-2.3-6.1-2.1-9.4,0-22.9,0-45.8,0-68.8,0-4.8-.5-9.8,1.2-14.4,2.5-5.2,7.7-8.9,13.5-9.2,3.9,0,7.9-.4,11.5,1.1,6.8,3,6.8,11.2,6.4,17.5.2,1.6-1,3.8.8,4.8,6.2.2,12.4,0,18.6,0v-8.8c14.8,0,29.6,0,44.4,0,14.8,0,29.6,0,44.4,0v8.8c6.2,0,12.4,0,18.6,0,1.8-1,.6-3.2.8-4.8-.4-6.3-.4-14.5,6.4-17.5,3.7-1.5,7.7-1.2,11.5-1.1,5.8.3,11,4,13.5,9.2,1.7,4.6,1.1,9.6,1.2,14.4,0,22.9,0,45.8,0,68.8.1,3.3-1.2,6.3-2.1,9.4-1.5,2.5-3.4,4.8-6,6.1-4.6,1.6-9.6,1.4-14.5,1.2-4.1-.1-7.5-3.3-8.8-7-1.9-4.9-.2-10.3-1.2-15.4-6.4-.6-12.9,0-19.3-.3v8.8h-88.7Z"/>
  <text class="st1" transform="translate(1 726.9)"><tspan x="0" y="0">LawBandit</tspan></text>
</svg>